<mxfile host="Electron" agent="Mozilla/5.0 (Windows NT 10.0; Win64; x64) AppleWebKit/537.36 (KHTML, like Gecko) draw.io/27.0.5 Chrome/134.0.6998.205 Electron/35.3.0 Safari/537.36" version="27.0.5">
  <diagram name="Page-1" id="_tuQYQHOCb08an6dTxc3">
    <mxGraphModel dx="629" dy="541" grid="1" gridSize="10" guides="1" tooltips="1" connect="1" arrows="1" fold="1" page="1" pageScale="1" pageWidth="827" pageHeight="1169" math="0" shadow="0">
      <root>
        <mxCell id="0" />
        <mxCell id="1" parent="0" />
        <mxCell id="AERCBBfbCmpr6GJHYrB0-1" value="" style="rounded=0;whiteSpace=wrap;html=1;dashed=1;dashPattern=1 2;gradientColor=none;fillColor=none;" vertex="1" parent="1">
          <mxGeometry x="60" y="150" width="160" height="360" as="geometry" />
        </mxCell>
        <mxCell id="AERCBBfbCmpr6GJHYrB0-24" style="edgeStyle=orthogonalEdgeStyle;rounded=0;orthogonalLoop=1;jettySize=auto;html=1;entryX=0;entryY=0.5;entryDx=0;entryDy=0;" edge="1" parent="1" source="AERCBBfbCmpr6GJHYrB0-2" target="AERCBBfbCmpr6GJHYrB0-10">
          <mxGeometry relative="1" as="geometry" />
        </mxCell>
        <mxCell id="AERCBBfbCmpr6GJHYrB0-25" style="edgeStyle=orthogonalEdgeStyle;rounded=0;orthogonalLoop=1;jettySize=auto;html=1;entryX=0;entryY=0.5;entryDx=0;entryDy=0;" edge="1" parent="1" source="AERCBBfbCmpr6GJHYrB0-2" target="AERCBBfbCmpr6GJHYrB0-12">
          <mxGeometry relative="1" as="geometry" />
        </mxCell>
        <mxCell id="AERCBBfbCmpr6GJHYrB0-26" style="edgeStyle=orthogonalEdgeStyle;rounded=0;orthogonalLoop=1;jettySize=auto;html=1;entryX=0;entryY=0.5;entryDx=0;entryDy=0;" edge="1" parent="1" source="AERCBBfbCmpr6GJHYrB0-2" target="AERCBBfbCmpr6GJHYrB0-11">
          <mxGeometry relative="1" as="geometry" />
        </mxCell>
        <mxCell id="AERCBBfbCmpr6GJHYrB0-2" value="" style="sketch=0;pointerEvents=1;shadow=0;dashed=0;html=1;strokeColor=none;fillColor=#505050;labelPosition=center;verticalLabelPosition=bottom;verticalAlign=top;outlineConnect=0;align=center;shape=mxgraph.office.concepts.folder;" vertex="1" parent="1">
          <mxGeometry x="115" y="212.5" width="50" height="45" as="geometry" />
        </mxCell>
        <mxCell id="AERCBBfbCmpr6GJHYrB0-27" style="edgeStyle=orthogonalEdgeStyle;rounded=0;orthogonalLoop=1;jettySize=auto;html=1;" edge="1" parent="1" source="AERCBBfbCmpr6GJHYrB0-3" target="AERCBBfbCmpr6GJHYrB0-15">
          <mxGeometry relative="1" as="geometry" />
        </mxCell>
        <mxCell id="AERCBBfbCmpr6GJHYrB0-29" style="edgeStyle=orthogonalEdgeStyle;rounded=0;orthogonalLoop=1;jettySize=auto;html=1;entryX=0;entryY=0.5;entryDx=0;entryDy=0;" edge="1" parent="1" source="AERCBBfbCmpr6GJHYrB0-3" target="AERCBBfbCmpr6GJHYrB0-16">
          <mxGeometry relative="1" as="geometry" />
        </mxCell>
        <mxCell id="AERCBBfbCmpr6GJHYrB0-30" style="edgeStyle=orthogonalEdgeStyle;rounded=0;orthogonalLoop=1;jettySize=auto;html=1;entryX=0;entryY=0.5;entryDx=0;entryDy=0;" edge="1" parent="1" source="AERCBBfbCmpr6GJHYrB0-3" target="AERCBBfbCmpr6GJHYrB0-14">
          <mxGeometry relative="1" as="geometry" />
        </mxCell>
        <mxCell id="AERCBBfbCmpr6GJHYrB0-3" value="" style="sketch=0;pointerEvents=1;shadow=0;dashed=0;html=1;strokeColor=none;fillColor=#505050;labelPosition=center;verticalLabelPosition=bottom;verticalAlign=top;outlineConnect=0;align=center;shape=mxgraph.office.concepts.folder;" vertex="1" parent="1">
          <mxGeometry x="115" y="402.5" width="50" height="45" as="geometry" />
        </mxCell>
        <mxCell id="AERCBBfbCmpr6GJHYrB0-4" value="&lt;b&gt;CRM&lt;/b&gt;" style="text;html=1;align=center;verticalAlign=middle;whiteSpace=wrap;rounded=0;" vertex="1" parent="1">
          <mxGeometry x="110" y="260" width="60" height="30" as="geometry" />
        </mxCell>
        <mxCell id="AERCBBfbCmpr6GJHYrB0-6" value="&lt;b&gt;ERP&lt;/b&gt;" style="text;html=1;align=center;verticalAlign=middle;whiteSpace=wrap;rounded=0;" vertex="1" parent="1">
          <mxGeometry x="110" y="447.5" width="60" height="30" as="geometry" />
        </mxCell>
        <mxCell id="AERCBBfbCmpr6GJHYrB0-7" value="&lt;b&gt;&lt;font style=&quot;font-size: 15px;&quot;&gt;SOURCE&lt;/font&gt;&lt;/b&gt;" style="text;html=1;align=center;verticalAlign=middle;whiteSpace=wrap;rounded=0;fillColor=default;" vertex="1" parent="1">
          <mxGeometry x="102.5" y="130" width="75" height="30" as="geometry" />
        </mxCell>
        <mxCell id="AERCBBfbCmpr6GJHYrB0-8" value="" style="rounded=1;whiteSpace=wrap;html=1;fillColor=none;strokeColor=#d79b00;" vertex="1" parent="1">
          <mxGeometry x="334" y="150" width="186" height="360" as="geometry" />
        </mxCell>
        <mxCell id="AERCBBfbCmpr6GJHYrB0-9" value="&lt;b&gt;&lt;font style=&quot;font-size: 15px;&quot;&gt;BRONZE LAYER&lt;/font&gt;&lt;/b&gt;" style="text;html=1;align=center;verticalAlign=middle;whiteSpace=wrap;rounded=1;fillColor=#ffe6cc;strokeColor=#d79b00;" vertex="1" parent="1">
          <mxGeometry x="357" y="110" width="140" height="30" as="geometry" />
        </mxCell>
        <mxCell id="AERCBBfbCmpr6GJHYrB0-10" value="&lt;b&gt;crm_cust_info&lt;/b&gt;" style="text;html=1;align=center;verticalAlign=middle;whiteSpace=wrap;rounded=1;fillColor=#ffe6cc;strokeColor=#d79b00;" vertex="1" parent="1">
          <mxGeometry x="357" y="180" width="140" height="30" as="geometry" />
        </mxCell>
        <mxCell id="AERCBBfbCmpr6GJHYrB0-11" value="&lt;b&gt;crm_prd_info&lt;/b&gt;" style="text;html=1;align=center;verticalAlign=middle;whiteSpace=wrap;rounded=1;fillColor=#ffe6cc;strokeColor=#d79b00;" vertex="1" parent="1">
          <mxGeometry x="357" y="220" width="140" height="30" as="geometry" />
        </mxCell>
        <mxCell id="AERCBBfbCmpr6GJHYrB0-12" value="&lt;b&gt;crm_cust_info&lt;/b&gt;" style="text;html=1;align=center;verticalAlign=middle;whiteSpace=wrap;rounded=1;fillColor=#ffe6cc;strokeColor=#d79b00;" vertex="1" parent="1">
          <mxGeometry x="357" y="260" width="140" height="30" as="geometry" />
        </mxCell>
        <mxCell id="AERCBBfbCmpr6GJHYrB0-14" value="&lt;b&gt;erp_cust_az12&lt;/b&gt;" style="text;html=1;align=center;verticalAlign=middle;whiteSpace=wrap;rounded=1;fillColor=#ffe6cc;strokeColor=#d79b00;" vertex="1" parent="1">
          <mxGeometry x="357" y="370" width="140" height="30" as="geometry" />
        </mxCell>
        <mxCell id="AERCBBfbCmpr6GJHYrB0-15" value="&lt;b&gt;erp_loc_a101&lt;/b&gt;" style="text;html=1;align=center;verticalAlign=middle;whiteSpace=wrap;rounded=1;fillColor=#ffe6cc;strokeColor=#d79b00;" vertex="1" parent="1">
          <mxGeometry x="357" y="410" width="140" height="30" as="geometry" />
        </mxCell>
        <mxCell id="AERCBBfbCmpr6GJHYrB0-16" value="&lt;b&gt;erp_px_cat_g1v2&lt;/b&gt;" style="text;html=1;align=center;verticalAlign=middle;whiteSpace=wrap;rounded=1;fillColor=#ffe6cc;strokeColor=#d79b00;" vertex="1" parent="1">
          <mxGeometry x="357" y="450" width="140" height="30" as="geometry" />
        </mxCell>
      </root>
    </mxGraphModel>
  </diagram>
</mxfile>
